<?xml version="1.0" encoding="UTF-8" standalone="no"?>
<!DOCTYPE svg PUBLIC "-//W3C//DTD SVG 1.1//EN"
 "http://www.w3.org/Graphics/SVG/1.1/DTD/svg11.dtd">
<!-- Generated by graphviz version 2.43.0 (0)
 -->
<!-- Title: WLNdigraph Pages: 1 -->
<svg width="335pt" height="69pt"
 viewBox="0.00 0.00 335.00 69.50" xmlns="http://www.w3.org/2000/svg" xmlns:xlink="http://www.w3.org/1999/xlink">
<g id="graph0" class="graph" transform="scale(1 1) rotate(0) translate(4 65.5)">
<title>WLNdigraph</title>
<polygon fill="white" stroke="transparent" points="-4,4 -4,-65.5 331,-65.5 331,4 -4,4"/>
<!-- 1 -->
<g id="node1" class="node">
<title>1</title>
<ellipse fill="none" stroke="green" cx="18" cy="-18" rx="18" ry="18"/>
<text text-anchor="middle" x="18" y="-14.3" font-family="Times,serif" font-size="14.00">S</text>
</g>
<!-- 2 -->
<g id="node2" class="node">
<title>2</title>
<ellipse fill="none" stroke="green" cx="91.5" cy="-42" rx="19.5" ry="19.5"/>
<text text-anchor="middle" x="91.5" y="-38.3" font-family="Times,serif" font-size="14.00">W</text>
</g>
<!-- 1&#45;&gt;2 -->
<g id="edge1" class="edge">
<title>1&#45;&gt;2</title>
<path fill="none" stroke="black" d="M35.22,-23.45C46.43,-27.21 61.33,-32.21 72.84,-36.07"/>
</g>
<!-- 5 -->
<g id="node3" class="node">
<title>5</title>
<ellipse fill="none" stroke="green" cx="309" cy="-18" rx="18" ry="18"/>
<text text-anchor="middle" x="309" y="-14.3" font-family="Times,serif" font-size="14.00">C</text>
</g>
<!-- 1&#45;&gt;5 -->
<g id="edge2" class="edge">
<title>1&#45;&gt;5</title>
<path fill="none" stroke="black" d="M36.17,-16.38C46.53,-15.48 60.01,-14.45 72,-14 153.27,-10.94 173.72,-10.94 255,-14 266.98,-14.45 280.46,-15.48 290.83,-16.38"/>
</g>
<!-- 3 -->
<g id="node4" class="node">
<title>3</title>
<ellipse fill="none" stroke="green" cx="165" cy="-41" rx="18" ry="18"/>
<text text-anchor="middle" x="165" y="-37.3" font-family="Times,serif" font-size="14.00">C</text>
</g>
<!-- 2&#45;&gt;3 -->
<g id="edge3" class="edge">
<title>2&#45;&gt;3</title>
<path fill="none" stroke="black" d="M111.28,-41.74C122.21,-41.58 135.88,-41.39 146.56,-41.24"/>
</g>
<!-- 4 -->
<g id="node5" class="node">
<title>4</title>
<ellipse fill="none" stroke="green" cx="237" cy="-41" rx="18" ry="18"/>
<text text-anchor="middle" x="237" y="-37.3" font-family="Times,serif" font-size="14.00">C</text>
</g>
<!-- 3&#45;&gt;4 -->
<g id="edge4" class="edge">
<title>3&#45;&gt;4</title>
<path fill="none" stroke="black" d="M183.3,-41C194.15,-41 208.08,-41 218.89,-41"/>
</g>
<!-- 4&#45;&gt;5 -->
<g id="edge5" class="edge">
<title>4&#45;&gt;5</title>
<path fill="none" stroke="black" d="M254.23,-35.67C265.38,-32 280.13,-27.16 291.36,-23.47"/>
</g>
</g>
</svg>
