<?xml version="1.0" encoding="UTF-8" standalone="no"?>
<!DOCTYPE svg PUBLIC "-//W3C//DTD SVG 1.1//EN"
 "http://www.w3.org/Graphics/SVG/1.1/DTD/svg11.dtd">
<!-- Generated by graphviz version 2.43.0 (0)
 -->
<!-- Title: BABELdigraph Pages: 1 -->
<svg width="2045pt" height="216pt"
 viewBox="0.00 0.00 2044.93 216.50" xmlns="http://www.w3.org/2000/svg" xmlns:xlink="http://www.w3.org/1999/xlink">
<g id="graph0" class="graph" transform="scale(1 1) rotate(0) translate(4 212.5)">
<title>BABELdigraph</title>
<polygon fill="white" stroke="transparent" points="-4,4 -4,-212.5 2040.93,-212.5 2040.93,4 -4,4"/>
<!-- 1 -->
<g id="node1" class="node">
<title>1</title>
<ellipse fill="none" stroke="black" cx="18" cy="-170.5" rx="18" ry="18"/>
<text text-anchor="middle" x="18" y="-166.8" font-family="Times,serif" font-size="14.00">1</text>
</g>
<!-- 2 -->
<g id="node2" class="node">
<title>2</title>
<ellipse fill="none" stroke="black" cx="90" cy="-105.5" rx="18" ry="18"/>
<text text-anchor="middle" x="90" y="-101.8" font-family="Times,serif" font-size="14.00">2</text>
</g>
<!-- 1&#45;&gt;2 -->
<g id="edge1" class="edge">
<title>1&#45;&gt;2</title>
<path fill="none" stroke="black" d="M31.84,-158.58C42.2,-148.96 56.96,-135.25 68.89,-124.17"/>
<polygon fill="black" stroke="black" points="71.3,-126.71 76.24,-117.34 66.53,-121.58 71.3,-126.71"/>
</g>
<!-- 14 -->
<g id="node14" class="node">
<title>14</title>
<ellipse fill="none" stroke="black" cx="967.48" cy="-145.5" rx="19.5" ry="19.5"/>
<text text-anchor="middle" x="967.48" y="-141.8" font-family="Times,serif" font-size="14.00">14</text>
</g>
<!-- 1&#45;&gt;14 -->
<g id="edge16" class="edge">
<title>1&#45;&gt;14</title>
<path fill="none" stroke="black" d="M36.05,-170.5C62.71,-170.5 115.89,-170.5 161,-170.5 161,-170.5 161,-170.5 818.49,-170.5 860.73,-170.5 908.81,-160.48 938.4,-153.12"/>
<polygon fill="black" stroke="black" points="939.6,-156.43 948.42,-150.56 937.87,-149.65 939.6,-156.43"/>
</g>
<!-- 18 -->
<g id="node18" class="node">
<title>18</title>
<ellipse fill="none" stroke="black" cx="1267.47" cy="-145.5" rx="19.5" ry="19.5"/>
<text text-anchor="middle" x="1267.47" y="-141.8" font-family="Times,serif" font-size="14.00">18</text>
</g>
<!-- 1&#45;&gt;18 -->
<g id="edge21" class="edge">
<title>1&#45;&gt;18</title>
<path fill="none" stroke="black" d="M34.81,-177.65C60.65,-188.65 113.79,-208.5 161,-208.5 161,-208.5 161,-208.5 1118.48,-208.5 1165.6,-208.5 1214.9,-181.13 1243.03,-162.47"/>
<polygon fill="black" stroke="black" points="1245.11,-165.29 1251.39,-156.76 1241.16,-159.51 1245.11,-165.29"/>
</g>
<!-- 3 -->
<g id="node3" class="node">
<title>3</title>
<ellipse fill="none" stroke="black" cx="162" cy="-105.5" rx="18" ry="18"/>
<text text-anchor="middle" x="162" y="-101.8" font-family="Times,serif" font-size="14.00">3</text>
</g>
<!-- 2&#45;&gt;3 -->
<g id="edge2" class="edge">
<title>2&#45;&gt;3</title>
<path fill="none" stroke="black" d="M108.3,-105.5C116.02,-105.5 125.29,-105.5 133.89,-105.5"/>
<polygon fill="black" stroke="black" points="133.9,-109 143.9,-105.5 133.9,-102 133.9,-109"/>
</g>
<!-- 21 -->
<g id="node21" class="node">
<title>21</title>
<ellipse fill="none" stroke="black" cx="1492.46" cy="-19.5" rx="19.5" ry="19.5"/>
<text text-anchor="middle" x="1492.46" y="-15.8" font-family="Times,serif" font-size="14.00">21</text>
</g>
<!-- 2&#45;&gt;21 -->
<g id="edge25" class="edge">
<title>2&#45;&gt;21</title>
<path fill="none" stroke="black" d="M100.91,-91.18C121.78,-62.87 173.31,-2.5 233,-2.5 233,-2.5 233,-2.5 1343.47,-2.5 1385.16,-2.5 1433.03,-9.24 1462.76,-14.23"/>
<polygon fill="black" stroke="black" points="1462.4,-17.72 1472.85,-15.98 1463.59,-10.82 1462.4,-17.72"/>
</g>
<!-- 4 -->
<g id="node4" class="node">
<title>4</title>
<ellipse fill="none" stroke="black" cx="234" cy="-86.5" rx="18" ry="18"/>
<text text-anchor="middle" x="234" y="-82.8" font-family="Times,serif" font-size="14.00">4</text>
</g>
<!-- 3&#45;&gt;4 -->
<g id="edge3" class="edge">
<title>3&#45;&gt;4</title>
<path fill="none" stroke="black" d="M179.59,-101C187.7,-98.79 197.65,-96.09 206.75,-93.62"/>
<polygon fill="black" stroke="black" points="207.8,-96.97 216.53,-90.97 205.96,-90.21 207.8,-96.97"/>
</g>
<!-- 12 -->
<g id="node12" class="node">
<title>12</title>
<ellipse fill="none" stroke="black" cx="817.49" cy="-123.5" rx="19.5" ry="19.5"/>
<text text-anchor="middle" x="817.49" y="-119.8" font-family="Times,serif" font-size="14.00">12</text>
</g>
<!-- 3&#45;&gt;12 -->
<g id="edge13" class="edge">
<title>3&#45;&gt;12</title>
<path fill="none" stroke="black" d="M179.42,-110.7C205.67,-118.55 258.83,-132.5 305,-132.5 305,-132.5 305,-132.5 668.5,-132.5 709.99,-132.5 757.91,-128.93 787.71,-126.29"/>
<polygon fill="black" stroke="black" points="788.18,-129.76 797.82,-125.36 787.55,-122.79 788.18,-129.76"/>
</g>
<!-- 5 -->
<g id="node5" class="node">
<title>5</title>
<ellipse fill="none" stroke="black" cx="306" cy="-86.5" rx="18" ry="18"/>
<text text-anchor="middle" x="306" y="-82.8" font-family="Times,serif" font-size="14.00">5</text>
</g>
<!-- 4&#45;&gt;5 -->
<g id="edge4" class="edge">
<title>4&#45;&gt;5</title>
<path fill="none" stroke="black" d="M252.3,-86.5C260.02,-86.5 269.29,-86.5 277.89,-86.5"/>
<polygon fill="black" stroke="black" points="277.9,-90 287.9,-86.5 277.9,-83 277.9,-90"/>
</g>
<!-- 6 -->
<g id="node6" class="node">
<title>6</title>
<ellipse fill="none" stroke="black" cx="378" cy="-48.5" rx="18" ry="18"/>
<text text-anchor="middle" x="378" y="-44.8" font-family="Times,serif" font-size="14.00">6</text>
</g>
<!-- 5&#45;&gt;6 -->
<g id="edge5" class="edge">
<title>5&#45;&gt;6</title>
<path fill="none" stroke="black" d="M322.19,-78.25C331.18,-73.37 342.77,-67.08 352.97,-61.54"/>
<polygon fill="black" stroke="black" points="354.72,-64.57 361.84,-56.73 351.38,-58.42 354.72,-64.57"/>
</g>
<!-- 10 -->
<g id="node10" class="node">
<title>10</title>
<ellipse fill="none" stroke="black" cx="667.5" cy="-85.5" rx="19.5" ry="19.5"/>
<text text-anchor="middle" x="667.5" y="-81.8" font-family="Times,serif" font-size="14.00">10</text>
</g>
<!-- 5&#45;&gt;10 -->
<g id="edge10" class="edge">
<title>5&#45;&gt;10</title>
<path fill="none" stroke="black" d="M324.03,-88.08C350.67,-90.41 403.81,-94.5 449,-94.5 449,-94.5 449,-94.5 523,-94.5 562.84,-94.5 608.78,-91 637.73,-88.37"/>
<polygon fill="black" stroke="black" points="638.32,-91.83 647.95,-87.41 637.66,-84.86 638.32,-91.83"/>
</g>
<!-- 7 -->
<g id="node7" class="node">
<title>7</title>
<ellipse fill="none" stroke="black" cx="450" cy="-48.5" rx="18" ry="18"/>
<text text-anchor="middle" x="450" y="-44.8" font-family="Times,serif" font-size="14.00">7</text>
</g>
<!-- 6&#45;&gt;7 -->
<g id="edge6" class="edge">
<title>6&#45;&gt;7</title>
<path fill="none" stroke="black" d="M396.3,-48.5C404.02,-48.5 413.29,-48.5 421.89,-48.5"/>
<polygon fill="black" stroke="black" points="421.9,-52 431.9,-48.5 421.9,-45 421.9,-52"/>
</g>
<!-- 8 -->
<g id="node8" class="node">
<title>8</title>
<ellipse fill="none" stroke="black" cx="522" cy="-48.5" rx="18" ry="18"/>
<text text-anchor="middle" x="522" y="-44.8" font-family="Times,serif" font-size="14.00">8</text>
</g>
<!-- 7&#45;&gt;8 -->
<g id="edge7" class="edge">
<title>7&#45;&gt;8</title>
<path fill="none" stroke="black" d="M468.3,-48.5C476.02,-48.5 485.29,-48.5 493.89,-48.5"/>
<polygon fill="black" stroke="black" points="493.9,-52 503.9,-48.5 493.9,-45 493.9,-52"/>
</g>
<!-- 9 -->
<g id="node9" class="node">
<title>9</title>
<ellipse fill="none" stroke="black" cx="594" cy="-48.5" rx="18" ry="18"/>
<text text-anchor="middle" x="594" y="-44.8" font-family="Times,serif" font-size="14.00">9</text>
</g>
<!-- 8&#45;&gt;9 -->
<g id="edge8" class="edge">
<title>8&#45;&gt;9</title>
<path fill="none" stroke="black" d="M540.3,-48.5C548.02,-48.5 557.29,-48.5 565.89,-48.5"/>
<polygon fill="black" stroke="black" points="565.9,-52 575.9,-48.5 565.9,-45 565.9,-52"/>
</g>
<!-- 9&#45;&gt;10 -->
<g id="edge9" class="edge">
<title>9&#45;&gt;10</title>
<path fill="none" stroke="black" d="M610.51,-56.53C619.38,-61.12 630.73,-66.99 640.88,-72.24"/>
<polygon fill="black" stroke="black" points="639.28,-75.35 649.77,-76.84 642.49,-69.14 639.28,-75.35"/>
</g>
<!-- 11 -->
<g id="node11" class="node">
<title>11</title>
<ellipse fill="none" stroke="black" cx="742.49" cy="-85.5" rx="19.5" ry="19.5"/>
<text text-anchor="middle" x="742.49" y="-81.8" font-family="Times,serif" font-size="14.00">11</text>
</g>
<!-- 10&#45;&gt;11 -->
<g id="edge11" class="edge">
<title>10&#45;&gt;11</title>
<path fill="none" stroke="black" d="M687.3,-85.5C695.04,-85.5 704.2,-85.5 712.75,-85.5"/>
<polygon fill="black" stroke="black" points="712.76,-89 722.76,-85.5 712.76,-82 712.76,-89"/>
</g>
<!-- 11&#45;&gt;12 -->
<g id="edge12" class="edge">
<title>11&#45;&gt;12</title>
<path fill="none" stroke="black" d="M760.06,-94.12C769.14,-98.85 780.6,-104.81 790.81,-110.13"/>
<polygon fill="black" stroke="black" points="789.25,-113.27 799.74,-114.78 792.49,-107.06 789.25,-113.27"/>
</g>
<!-- 13 -->
<g id="node13" class="node">
<title>13</title>
<ellipse fill="none" stroke="black" cx="892.49" cy="-123.5" rx="19.5" ry="19.5"/>
<text text-anchor="middle" x="892.49" y="-119.8" font-family="Times,serif" font-size="14.00">13</text>
</g>
<!-- 12&#45;&gt;13 -->
<g id="edge14" class="edge">
<title>12&#45;&gt;13</title>
<path fill="none" stroke="black" d="M837.29,-123.5C845.04,-123.5 854.19,-123.5 862.75,-123.5"/>
<polygon fill="black" stroke="black" points="862.75,-127 872.75,-123.5 862.75,-120 862.75,-127"/>
</g>
<!-- 13&#45;&gt;14 -->
<g id="edge15" class="edge">
<title>13&#45;&gt;14</title>
<path fill="none" stroke="black" d="M911.53,-128.94C919.75,-131.41 929.67,-134.4 938.8,-137.16"/>
<polygon fill="black" stroke="black" points="938.06,-140.59 948.65,-140.12 940.08,-133.89 938.06,-140.59"/>
</g>
<!-- 15 -->
<g id="node15" class="node">
<title>15</title>
<ellipse fill="none" stroke="black" cx="1042.48" cy="-145.5" rx="19.5" ry="19.5"/>
<text text-anchor="middle" x="1042.48" y="-141.8" font-family="Times,serif" font-size="14.00">15</text>
</g>
<!-- 14&#45;&gt;15 -->
<g id="edge17" class="edge">
<title>14&#45;&gt;15</title>
<path fill="none" stroke="black" d="M987.28,-145.5C995.03,-145.5 1004.18,-145.5 1012.74,-145.5"/>
<polygon fill="black" stroke="black" points="1012.75,-149 1022.75,-145.5 1012.75,-142 1012.75,-149"/>
</g>
<!-- 16 -->
<g id="node16" class="node">
<title>16</title>
<ellipse fill="none" stroke="black" cx="1117.48" cy="-145.5" rx="19.5" ry="19.5"/>
<text text-anchor="middle" x="1117.48" y="-141.8" font-family="Times,serif" font-size="14.00">16</text>
</g>
<!-- 15&#45;&gt;16 -->
<g id="edge18" class="edge">
<title>15&#45;&gt;16</title>
<path fill="none" stroke="black" d="M1062.28,-145.5C1070.03,-145.5 1079.18,-145.5 1087.74,-145.5"/>
<polygon fill="black" stroke="black" points="1087.74,-149 1097.74,-145.5 1087.74,-142 1087.74,-149"/>
</g>
<!-- 17 -->
<g id="node17" class="node">
<title>17</title>
<ellipse fill="none" stroke="black" cx="1192.47" cy="-145.5" rx="19.5" ry="19.5"/>
<text text-anchor="middle" x="1192.47" y="-141.8" font-family="Times,serif" font-size="14.00">17</text>
</g>
<!-- 16&#45;&gt;17 -->
<g id="edge19" class="edge">
<title>16&#45;&gt;17</title>
<path fill="none" stroke="black" d="M1137.28,-145.5C1145.02,-145.5 1154.18,-145.5 1162.73,-145.5"/>
<polygon fill="black" stroke="black" points="1162.74,-149 1172.74,-145.5 1162.74,-142 1162.74,-149"/>
</g>
<!-- 17&#45;&gt;18 -->
<g id="edge20" class="edge">
<title>17&#45;&gt;18</title>
<path fill="none" stroke="black" d="M1212.27,-145.5C1220.02,-145.5 1229.17,-145.5 1237.73,-145.5"/>
<polygon fill="black" stroke="black" points="1237.74,-149 1247.74,-145.5 1237.74,-142 1237.74,-149"/>
</g>
<!-- 19 -->
<g id="node19" class="node">
<title>19</title>
<ellipse fill="none" stroke="black" cx="1342.47" cy="-113.5" rx="19.5" ry="19.5"/>
<text text-anchor="middle" x="1342.47" y="-109.8" font-family="Times,serif" font-size="14.00">19</text>
</g>
<!-- 18&#45;&gt;19 -->
<g id="edge22" class="edge">
<title>18&#45;&gt;19</title>
<path fill="none" stroke="black" d="M1285.77,-137.91C1294.5,-134.09 1305.27,-129.37 1315.01,-125.1"/>
<polygon fill="black" stroke="black" points="1316.54,-128.25 1324.29,-121.03 1313.73,-121.84 1316.54,-128.25"/>
</g>
<!-- 20 -->
<g id="node20" class="node">
<title>20</title>
<ellipse fill="none" stroke="black" cx="1417.46" cy="-66.5" rx="19.5" ry="19.5"/>
<text text-anchor="middle" x="1417.46" y="-62.8" font-family="Times,serif" font-size="14.00">20</text>
</g>
<!-- 19&#45;&gt;20 -->
<g id="edge23" class="edge">
<title>19&#45;&gt;20</title>
<path fill="none" stroke="black" d="M1359.31,-103.3C1368.87,-97.14 1381.26,-89.16 1392.06,-82.21"/>
<polygon fill="black" stroke="black" points="1394.14,-85.03 1400.66,-76.68 1390.35,-79.15 1394.14,-85.03"/>
</g>
<!-- 28 -->
<g id="node28" class="node">
<title>28</title>
<ellipse fill="none" stroke="black" cx="2017.44" cy="-89.5" rx="19.5" ry="19.5"/>
<text text-anchor="middle" x="2017.44" y="-85.8" font-family="Times,serif" font-size="14.00">28</text>
</g>
<!-- 19&#45;&gt;28 -->
<g id="edge34" class="edge">
<title>19&#45;&gt;28</title>
<path fill="none" stroke="black" d="M1362.16,-113.5C1390.23,-113.5 1444.96,-113.5 1491.46,-113.5 1491.46,-113.5 1491.46,-113.5 1868.44,-113.5 1910.63,-113.5 1958.73,-103.88 1988.34,-96.82"/>
<polygon fill="black" stroke="black" points="1989.49,-100.14 1998.36,-94.36 1987.82,-93.34 1989.49,-100.14"/>
</g>
<!-- 20&#45;&gt;21 -->
<g id="edge24" class="edge">
<title>20&#45;&gt;21</title>
<path fill="none" stroke="black" d="M1434.3,-56.3C1443.87,-50.14 1456.26,-42.16 1467.05,-35.21"/>
<polygon fill="black" stroke="black" points="1469.14,-38.03 1475.65,-29.68 1465.35,-32.15 1469.14,-38.03"/>
</g>
<!-- 25 -->
<g id="node25" class="node">
<title>25</title>
<ellipse fill="none" stroke="black" cx="1792.45" cy="-66.5" rx="19.5" ry="19.5"/>
<text text-anchor="middle" x="1792.45" y="-62.8" font-family="Times,serif" font-size="14.00">25</text>
</g>
<!-- 20&#45;&gt;25 -->
<g id="edge30" class="edge">
<title>20&#45;&gt;25</title>
<path fill="none" stroke="black" d="M1437.15,-66.5C1465.23,-66.5 1519.95,-66.5 1566.46,-66.5 1566.46,-66.5 1566.46,-66.5 1643.45,-66.5 1684.87,-66.5 1732.81,-66.5 1762.63,-66.5"/>
<polygon fill="black" stroke="black" points="1762.76,-70 1772.76,-66.5 1762.76,-63 1762.76,-70"/>
</g>
<!-- 22 -->
<g id="node22" class="node">
<title>22</title>
<ellipse fill="none" stroke="black" cx="1567.46" cy="-19.5" rx="19.5" ry="19.5"/>
<text text-anchor="middle" x="1567.46" y="-15.8" font-family="Times,serif" font-size="14.00">22</text>
</g>
<!-- 21&#45;&gt;22 -->
<g id="edge26" class="edge">
<title>21&#45;&gt;22</title>
<path fill="none" stroke="black" d="M1512.26,-19.5C1520.01,-19.5 1529.16,-19.5 1537.72,-19.5"/>
<polygon fill="black" stroke="black" points="1537.72,-23 1547.72,-19.5 1537.72,-16 1537.72,-23"/>
</g>
<!-- 23 -->
<g id="node23" class="node">
<title>23</title>
<ellipse fill="none" stroke="black" cx="1642.45" cy="-19.5" rx="19.5" ry="19.5"/>
<text text-anchor="middle" x="1642.45" y="-15.8" font-family="Times,serif" font-size="14.00">23</text>
</g>
<!-- 22&#45;&gt;23 -->
<g id="edge27" class="edge">
<title>22&#45;&gt;23</title>
<path fill="none" stroke="black" d="M1587.26,-19.5C1595,-19.5 1604.16,-19.5 1612.71,-19.5"/>
<polygon fill="black" stroke="black" points="1612.72,-23 1622.72,-19.5 1612.72,-16 1612.72,-23"/>
</g>
<!-- 24 -->
<g id="node24" class="node">
<title>24</title>
<ellipse fill="none" stroke="black" cx="1717.45" cy="-19.5" rx="19.5" ry="19.5"/>
<text text-anchor="middle" x="1717.45" y="-15.8" font-family="Times,serif" font-size="14.00">24</text>
</g>
<!-- 23&#45;&gt;24 -->
<g id="edge28" class="edge">
<title>23&#45;&gt;24</title>
<path fill="none" stroke="black" d="M1662.25,-19.5C1670,-19.5 1679.15,-19.5 1687.71,-19.5"/>
<polygon fill="black" stroke="black" points="1687.72,-23 1697.72,-19.5 1687.72,-16 1687.72,-23"/>
</g>
<!-- 24&#45;&gt;25 -->
<g id="edge29" class="edge">
<title>24&#45;&gt;25</title>
<path fill="none" stroke="black" d="M1734.29,-29.7C1743.85,-35.86 1756.24,-43.83 1767.04,-50.78"/>
<polygon fill="black" stroke="black" points="1765.34,-53.85 1775.64,-56.32 1769.12,-47.96 1765.34,-53.85"/>
</g>
<!-- 26 -->
<g id="node26" class="node">
<title>26</title>
<ellipse fill="none" stroke="black" cx="1867.44" cy="-66.5" rx="19.5" ry="19.5"/>
<text text-anchor="middle" x="1867.44" y="-62.8" font-family="Times,serif" font-size="14.00">26</text>
</g>
<!-- 25&#45;&gt;26 -->
<g id="edge31" class="edge">
<title>25&#45;&gt;26</title>
<path fill="none" stroke="black" d="M1812.24,-66.5C1819.99,-66.5 1829.15,-66.5 1837.7,-66.5"/>
<polygon fill="black" stroke="black" points="1837.71,-70 1847.71,-66.5 1837.71,-63 1837.71,-70"/>
</g>
<!-- 27 -->
<g id="node27" class="node">
<title>27</title>
<ellipse fill="none" stroke="black" cx="1942.44" cy="-66.5" rx="19.5" ry="19.5"/>
<text text-anchor="middle" x="1942.44" y="-62.8" font-family="Times,serif" font-size="14.00">27</text>
</g>
<!-- 26&#45;&gt;27 -->
<g id="edge32" class="edge">
<title>26&#45;&gt;27</title>
<path fill="none" stroke="black" d="M1887.24,-66.5C1894.99,-66.5 1904.14,-66.5 1912.7,-66.5"/>
<polygon fill="black" stroke="black" points="1912.7,-70 1922.7,-66.5 1912.7,-63 1912.7,-70"/>
</g>
<!-- 27&#45;&gt;28 -->
<g id="edge33" class="edge">
<title>27&#45;&gt;28</title>
<path fill="none" stroke="black" d="M1961.48,-72.18C1969.79,-74.8 1979.83,-77.97 1989.05,-80.87"/>
<polygon fill="black" stroke="black" points="1988.01,-84.21 1998.6,-83.88 1990.11,-77.53 1988.01,-84.21"/>
</g>
</g>
</svg>
