<?xml version="1.0" encoding="UTF-8" standalone="no"?>
<!DOCTYPE svg PUBLIC "-//W3C//DTD SVG 1.1//EN"
 "http://www.w3.org/Graphics/SVG/1.1/DTD/svg11.dtd">
<!-- Generated by graphviz version 2.43.0 (0)
 -->
<!-- Title: WLNdigraph Pages: 1 -->
<svg width="479pt" height="207pt"
 viewBox="0.00 0.00 479.00 207.50" xmlns="http://www.w3.org/2000/svg" xmlns:xlink="http://www.w3.org/1999/xlink">
<g id="graph0" class="graph" transform="scale(1 1) rotate(0) translate(4 203.5)">
<title>WLNdigraph</title>
<polygon fill="white" stroke="transparent" points="-4,4 -4,-203.5 475,-203.5 475,4 -4,4"/>
<!-- 1 -->
<g id="node1" class="node">
<title>1</title>
<ellipse fill="none" stroke="black" cx="18" cy="-72" rx="18" ry="18"/>
<text text-anchor="middle" x="18" y="-68.3" font-family="Times,serif" font-size="14.00">O</text>
</g>
<!-- 2 -->
<g id="node2" class="node">
<title>2</title>
<ellipse fill="none" stroke="black" cx="90" cy="-72" rx="18" ry="18"/>
<text text-anchor="middle" x="90" y="-68.3" font-family="Times,serif" font-size="14.00">K</text>
</g>
<!-- 1&#45;&gt;2 -->
<g id="edge1" class="edge">
<title>1&#45;&gt;2</title>
<path fill="none" stroke="black" d="M36.3,-72C47.15,-72 61.08,-72 71.9,-72"/>
</g>
<!-- 3 -->
<g id="node3" class="node">
<title>3</title>
<ellipse fill="none" stroke="black" cx="162" cy="-166" rx="18" ry="18"/>
<text text-anchor="middle" x="162" y="-162.3" font-family="Times,serif" font-size="14.00">1</text>
</g>
<!-- 2&#45;&gt;3 -->
<g id="edge2" class="edge">
<title>2&#45;&gt;3</title>
<path fill="none" stroke="black" d="M101.63,-86.28C114.86,-104.05 137.32,-134.21 150.5,-151.9"/>
</g>
<!-- 8 -->
<g id="node4" class="node">
<title>8</title>
<ellipse fill="none" stroke="black" cx="162" cy="-99" rx="18" ry="18"/>
<text text-anchor="middle" x="162" y="-95.3" font-family="Times,serif" font-size="14.00">C</text>
</g>
<!-- 2&#45;&gt;8 -->
<g id="edge3" class="edge">
<title>2&#45;&gt;8</title>
<path fill="none" stroke="black" d="M107.24,-78.26C118.54,-82.62 133.56,-88.42 144.85,-92.77"/>
</g>
<!-- 12 -->
<g id="node5" class="node">
<title>12</title>
<ellipse fill="none" stroke="black" cx="162" cy="-45" rx="18" ry="18"/>
<text text-anchor="middle" x="162" y="-41.3" font-family="Times,serif" font-size="14.00">O</text>
</g>
<!-- 2&#45;&gt;12 -->
<g id="edge4" class="edge">
<title>2&#45;&gt;12</title>
<path fill="none" stroke="black" d="M104.83,-61.16C116.07,-55.31 131.96,-49.05 143.98,-45.68"/>
</g>
<!-- 2&#45;&gt;12 -->
<g id="edge5" class="edge">
<title>2&#45;&gt;12</title>
<path fill="none" stroke="black" d="M108.3,-71.24C120.29,-67.86 136.03,-61.65 147.18,-55.84"/>
</g>
<!-- 4 -->
<g id="node6" class="node">
<title>4</title>
<ellipse fill="none" stroke="black" cx="234" cy="-180" rx="18" ry="18"/>
<text text-anchor="middle" x="234" y="-176.3" font-family="Times,serif" font-size="14.00">O</text>
</g>
<!-- 3&#45;&gt;4 -->
<g id="edge6" class="edge">
<title>3&#45;&gt;4</title>
<path fill="none" stroke="black" d="M179.95,-169.39C190.95,-171.59 205.24,-174.45 216.21,-176.64"/>
</g>
<!-- 9 -->
<g id="node10" class="node">
<title>9</title>
<ellipse fill="none" stroke="black" cx="234" cy="-126" rx="18" ry="18"/>
<text text-anchor="middle" x="234" y="-122.3" font-family="Times,serif" font-size="14.00">H</text>
</g>
<!-- 8&#45;&gt;9 -->
<g id="edge12" class="edge">
<title>8&#45;&gt;9</title>
<path fill="none" stroke="black" d="M179.24,-105.26C190.54,-109.62 205.56,-115.42 216.85,-119.77"/>
</g>
<!-- 10 -->
<g id="node11" class="node">
<title>10</title>
<ellipse fill="none" stroke="black" cx="234" cy="-72" rx="18" ry="18"/>
<text text-anchor="middle" x="234" y="-68.3" font-family="Times,serif" font-size="14.00">H</text>
</g>
<!-- 8&#45;&gt;10 -->
<g id="edge13" class="edge">
<title>8&#45;&gt;10</title>
<path fill="none" stroke="black" d="M179.24,-92.74C190.54,-88.38 205.56,-82.58 216.85,-78.23"/>
</g>
<!-- 11 -->
<g id="node12" class="node">
<title>11</title>
<ellipse fill="none" stroke="black" cx="234" cy="-18" rx="18" ry="18"/>
<text text-anchor="middle" x="234" y="-14.3" font-family="Times,serif" font-size="14.00">H</text>
</g>
<!-- 8&#45;&gt;11 -->
<g id="edge14" class="edge">
<title>8&#45;&gt;11</title>
<path fill="none" stroke="black" d="M174.56,-85.62C187.61,-70.53 208.7,-46.12 221.66,-31.13"/>
</g>
<!-- 5 -->
<g id="node7" class="node">
<title>5</title>
<ellipse fill="none" stroke="black" cx="306" cy="-180" rx="18" ry="18"/>
<text text-anchor="middle" x="306" y="-176.3" font-family="Times,serif" font-size="14.00">1</text>
</g>
<!-- 4&#45;&gt;5 -->
<g id="edge7" class="edge">
<title>4&#45;&gt;5</title>
<path fill="none" stroke="black" d="M252.3,-180C263.15,-180 277.08,-180 287.9,-180"/>
</g>
<!-- 6 -->
<g id="node8" class="node">
<title>6</title>
<ellipse fill="none" stroke="black" cx="378" cy="-180" rx="18" ry="18"/>
<text text-anchor="middle" x="378" y="-176.3" font-family="Times,serif" font-size="14.00">K</text>
</g>
<!-- 5&#45;&gt;6 -->
<g id="edge8" class="edge">
<title>5&#45;&gt;6</title>
<path fill="none" stroke="black" d="M324.3,-180C335.15,-180 349.08,-180 359.9,-180"/>
</g>
<!-- 7 -->
<g id="node9" class="node">
<title>7</title>
<ellipse fill="none" stroke="black" cx="451.5" cy="-180" rx="19.5" ry="19.5"/>
<text text-anchor="middle" x="451.5" y="-176.3" font-family="Times,serif" font-size="14.00">W</text>
</g>
<!-- 6&#45;&gt;7 -->
<g id="edge9" class="edge">
<title>6&#45;&gt;7</title>
<path fill="none" stroke="black" d="M392.45,-169.18C404.66,-165.76 422.67,-165.61 435.38,-168.74"/>
</g>
<!-- 6&#45;&gt;7 -->
<g id="edge10" class="edge">
<title>6&#45;&gt;7</title>
<path fill="none" stroke="black" d="M396.31,-180C407.05,-180 420.86,-180 431.85,-180"/>
</g>
<!-- 6&#45;&gt;7 -->
<g id="edge11" class="edge">
<title>6&#45;&gt;7</title>
<path fill="none" stroke="black" d="M392.45,-190.82C404.66,-194.24 422.67,-194.39 435.38,-191.26"/>
</g>
</g>
</svg>
